<svg xmlns="http://www.w3.org/2000/svg" width="720" height="405" viewBox="0 0 720 405">
  <defs>
    <linearGradient id="bg" x1="0" x2="1" y1="0" y2="1">
      <stop offset="0" stop-color="#20111d"/>
      <stop offset="1" stop-color="#7c3aed"/>
    </linearGradient>
    <radialGradient id="glow" cx="50%" cy="50%" r="50%">
      <stop offset="0" stop-color="#fb7185" stop-opacity=".72"/>
      <stop offset="1" stop-color="#fb7185" stop-opacity="0"/>
    </radialGradient>
    <filter id="shadow" x="-20%" y="-20%" width="140%" height="140%">
      <feDropShadow dx="0" dy="18" stdDeviation="18" flood-color="#000000" flood-opacity=".24"/>
    </filter>
  </defs>
  <rect width="720" height="405" fill="url(#bg)"/>
  <circle cx="556" cy="116" r="190" fill="url(#glow)"/>
  <g opacity=".22">
  <circle cx="69" cy="310" r="80" fill="#fb7185"/>
  <path d="M0 318C88 268 142 338 224 284s146-38 220 12 156 44 276-24v133H0z" fill="#fff7ed" opacity=".08"/>
  <path d="M171 54h520" stroke="#fff7ed" stroke-width="2" opacity=".18"/>
  <path d="M171 354h520" stroke="#fff7ed" stroke-width="2" opacity=".14"/>
</g>
  <g filter="url(#shadow)"><g transform="translate(250 56)">
  <rect x="74" y="0" width="88" height="84" rx="30" fill="#fff7ed" opacity=".72"/>
  <rect x="74" y="236" width="88" height="84" rx="30" fill="#fff7ed" opacity=".72"/>
  <rect x="34" y="62" width="168" height="196" rx="58" fill="#fff7ed" opacity=".9"/>
  <circle cx="118" cy="160" r="62" fill="#fb7185" opacity=".72"/>
  <path d="M118 112v52l42 28" stroke="#fff7ed" stroke-width="14" stroke-linecap="round" stroke-linejoin="round"/>
</g></g>
</svg>