<svg xmlns="http://www.w3.org/2000/svg" width="720" height="405" viewBox="0 0 720 405">
  <defs>
    <linearGradient id="bg" x1="0" x2="1" y1="0" y2="1">
      <stop offset="0" stop-color="#101827"/>
      <stop offset="1" stop-color="#1d4ed8"/>
    </linearGradient>
    <radialGradient id="glow" cx="50%" cy="50%" r="50%">
      <stop offset="0" stop-color="#22c55e" stop-opacity=".72"/>
      <stop offset="1" stop-color="#22c55e" stop-opacity="0"/>
    </radialGradient>
    <filter id="shadow" x="-20%" y="-20%" width="140%" height="140%">
      <feDropShadow dx="0" dy="18" stdDeviation="18" flood-color="#000000" flood-opacity=".24"/>
    </filter>
  </defs>
  <rect width="720" height="405" fill="url(#bg)"/>
  <circle cx="573" cy="58" r="190" fill="url(#glow)"/>
  <g opacity=".22">
  <circle cx="72" cy="310" r="80" fill="#22c55e"/>
  <path d="M0 318C88 268 142 338 224 284s146-38 220 12 156 44 276-24v133H0z" fill="#eff6ff" opacity=".08"/>
  <path d="M148 54h520" stroke="#eff6ff" stroke-width="2" opacity=".18"/>
  <path d="M148 354h520" stroke="#eff6ff" stroke-width="2" opacity=".14"/>
</g>
  <g filter="url(#shadow)"><g transform="translate(164 92)">
  <path d="M28 234h364M66 198l82-92 78 50 106-138" fill="none" stroke="#eff6ff" stroke-width="25" stroke-linecap="round" stroke-linejoin="round"/>
  <path d="M304 18h64v64" fill="none" stroke="#22c55e" stroke-width="22" stroke-linecap="round"/>
  <rect x="78" y="160" width="34" height="74" fill="#22c55e"/><rect x="160" y="118" width="34" height="116" fill="#22c55e" opacity=".78"/><rect x="242" y="86" width="34" height="148" fill="#22c55e" opacity=".62"/>
</g></g>
</svg>