<svg xmlns="http://www.w3.org/2000/svg" width="720" height="405" viewBox="0 0 720 405">
  <defs>
    <linearGradient id="bg" x1="0" x2="1" y1="0" y2="1">
      <stop offset="0" stop-color="#102018"/>
      <stop offset="1" stop-color="#0f766e"/>
    </linearGradient>
    <radialGradient id="glow" cx="50%" cy="50%" r="50%">
      <stop offset="0" stop-color="#facc15" stop-opacity=".72"/>
      <stop offset="1" stop-color="#facc15" stop-opacity="0"/>
    </radialGradient>
    <filter id="shadow" x="-20%" y="-20%" width="140%" height="140%">
      <feDropShadow dx="0" dy="18" stdDeviation="18" flood-color="#000000" flood-opacity=".24"/>
    </filter>
  </defs>
  <rect width="720" height="405" fill="url(#bg)"/>
  <circle cx="599" cy="74" r="190" fill="url(#glow)"/>
  <g opacity=".22">
  <circle cx="42" cy="310" r="80" fill="#facc15"/>
  <path d="M0 318C88 268 142 338 224 284s146-38 220 12 156 44 276-24v133H0z" fill="#f8fafc" opacity=".08"/>
  <path d="M103 54h520" stroke="#f8fafc" stroke-width="2" opacity=".18"/>
  <path d="M103 354h520" stroke="#f8fafc" stroke-width="2" opacity=".14"/>
</g>
  <g filter="url(#shadow)"><g transform="translate(150 54)">
  <defs><clipPath id="japan-map-clip"><rect x="0" y="0" width="420" height="300" rx="34"/></clipPath></defs>
  <rect x="0" y="0" width="420" height="300" rx="34" fill="#f8fafc" opacity=".08"/>
  <g clip-path="url(#japan-map-clip)">
    <path d="M189.6,161.6L191.5,166.3L183.1,174.5L176.9,170.2L169.2,173.3L165.2,181.3L155.4,177.4L155.6,171.0L163.9,162.8L172.4,164.4L178.6,158.7L189.6,161.6Z M284.6,120.8L279.0,131.7L281.6,138.5L273.8,148.1L254.6,154.5L228.3,155.4L206.9,170.9L196.8,165.7L196.2,155.5L170.1,158.5L152.4,164.9L134.8,165.2L150.0,175.2L140.0,198.4L130.3,204.1L123.0,198.8L126.7,186.6L117.2,182.6L111.1,173.2L125.3,169.0L133.2,160.5L148.3,153.4L159.3,144.1L189.1,140.0L205.2,142.8L220.9,118.6L230.9,125.1L252.9,111.4L261.4,106.1L270.8,89.5L268.3,74.1L274.6,65.5L290.5,63.0L298.7,81.9L298.3,93.0L284.4,106.7L284.6,120.8Z M328.7,24.9L339.2,27.8L349.8,22.0L353.1,37.3L330.9,41.1L317.8,54.6L294.2,45.3L286.0,60.2L269.3,60.4L267.3,46.9L274.7,36.4L290.7,35.6L295.1,16.7L299.5,6.1L317.1,20.3L328.7,24.9Z M222.9,11.7L202.7,27.4L193.0,35.5L173.1,43.5L163.6,43.7L154.2,37.0L134.0,47.0L131.7,51.5L126.0,50.7L119.5,55.3L115.0,60.0L115.6,69.8L107.8,72.8L105.2,75.2L99.5,79.2L89.5,81.5L83.0,85.1L82.5,91.0L80.8,92.5L86.7,94.8L95.2,100.7L108.2,116.8L111.9,125.7L112.0,141.4L106.4,148.9L92.8,151.5L80.8,157.1L67.3,158.3L65.6,150.9L68.4,140.7L61.8,126.5L72.9,124.2L62.6,112.5L55.3,109.9L53.5,112.5L49.1,113.6L48.6,111.0L44.7,109.8L40.7,107.6L44.8,101.6L48.3,100.0L47.0,97.5L50.8,90.2L49.8,87.9L41.1,86.5L34.0,82.8L13.0,86.8L2.0,93.1L2.5,76.1L5.4,116.5L7.8,123.7L1.4,220.5Z" fill="#f8fafc" opacity=".78" transform="translate(-29.4 -21.0) scale(1.14)"/>
  </g>
  <circle cx="273.3" cy="131.3" r="32" fill="#facc15" opacity=".24"/>
  <circle cx="273.3" cy="131.3" r="12" fill="#ef4444"/>
  <circle cx="273.3" cy="131.3" r="48" fill="none" stroke="#ef4444" stroke-width="6" opacity=".58"/>
</g></g>
</svg>