<svg xmlns="http://www.w3.org/2000/svg" width="720" height="405" viewBox="0 0 720 405">
  <defs>
    <linearGradient id="bg" x1="0" x2="1" y1="0" y2="1">
      <stop offset="0" stop-color="#101827"/>
      <stop offset="1" stop-color="#1d4ed8"/>
    </linearGradient>
    <radialGradient id="glow" cx="50%" cy="50%" r="50%">
      <stop offset="0" stop-color="#22c55e" stop-opacity=".72"/>
      <stop offset="1" stop-color="#22c55e" stop-opacity="0"/>
    </radialGradient>
    <filter id="shadow" x="-20%" y="-20%" width="140%" height="140%">
      <feDropShadow dx="0" dy="18" stdDeviation="18" flood-color="#000000" flood-opacity=".24"/>
    </filter>
  </defs>
  <rect width="720" height="405" fill="url(#bg)"/>
  <circle cx="590" cy="57" r="190" fill="url(#glow)"/>
  <g opacity=".22">
  <circle cx="64" cy="310" r="80" fill="#22c55e"/>
  <path d="M0 318C88 268 142 338 224 284s146-38 220 12 156 44 276-24v133H0z" fill="#eff6ff" opacity=".08"/>
  <path d="M128 54h520" stroke="#eff6ff" stroke-width="2" opacity=".18"/>
  <path d="M128 354h520" stroke="#eff6ff" stroke-width="2" opacity=".14"/>
</g>
  <g filter="url(#shadow)"><g transform="translate(230 70)">
  <path d="M110 0l126 58v92c0 82-54 140-126 172C38 290-16 232-16 150V58z" fill="#eff6ff" opacity=".82"/>
  <circle cx="110" cy="150" r="70" fill="#22c55e" opacity=".24"/>
  <path d="M110 82v102M110 226v12" stroke="#22c55e" stroke-width="24" stroke-linecap="round"/>
</g></g>
</svg>