<svg xmlns="http://www.w3.org/2000/svg" width="720" height="405" viewBox="0 0 720 405">
  <defs>
    <linearGradient id="bg" x1="0" x2="1" y1="0" y2="1">
      <stop offset="0" stop-color="#101522"/>
      <stop offset="1" stop-color="#374151"/>
    </linearGradient>
    <radialGradient id="glow" cx="50%" cy="50%" r="50%">
      <stop offset="0" stop-color="#38bdf8" stop-opacity=".72"/>
      <stop offset="1" stop-color="#38bdf8" stop-opacity="0"/>
    </radialGradient>
    <filter id="shadow" x="-20%" y="-20%" width="140%" height="140%">
      <feDropShadow dx="0" dy="18" stdDeviation="18" flood-color="#000000" flood-opacity=".24"/>
    </filter>
  </defs>
  <rect width="720" height="405" fill="url(#bg)"/>
  <circle cx="550" cy="91" r="190" fill="url(#glow)"/>
  <g opacity=".22">
  <circle cx="66" cy="310" r="80" fill="#38bdf8"/>
  <path d="M0 318C88 268 142 338 224 284s146-38 220 12 156 44 276-24v133H0z" fill="#f8fafc" opacity=".08"/>
  <path d="M96 54h520" stroke="#f8fafc" stroke-width="2" opacity=".18"/>
  <path d="M96 354h520" stroke="#f8fafc" stroke-width="2" opacity=".14"/>
</g>
  <g filter="url(#shadow)"><g transform="translate(100 62)">
  <rect x="0" y="0" width="520" height="280" rx="34" fill="#f8fafc" opacity=".08"/>
  <path d="M162.1,268.1L166.0,269.8L164.0,270.8L162.8,270.9L160.0,271.3L157.4,270.4L154.1,268.3L153.3,266.6L157.3,268.6L158.5,266.3L160.9,265.8L161.4,266.7Z M175.4,262.8L176.2,264.4L173.5,264.3L171.6,264.3L174.6,263.6Z M361.5,260.1L359.3,259.2L359.6,258.0L361.9,258.9L361.5,260.1Z M470.0,242.9L472.2,243.3L474.2,243.1L473.8,246.0L473.1,247.1L471.8,248.3L470.1,246.6L469.0,243.6L470.0,242.9Z M509.9,243.2L511.3,243.2L511.7,244.8L510.2,247.1L510.0,248.8L507.7,249.6L506.4,252.8L504.6,254.2L502.3,253.5L500.5,252.7L503.1,249.3L505.1,248.2L507.2,246.2L508.4,244.3L509.6,242.3Z M512.2,234.0L513.3,234.7L514.2,236.7L516.3,237.4L517.9,236.9L517.1,239.8L515.6,240.3L515.5,241.5L514.2,243.9L512.9,244.1L513.1,242.3L511.1,240.4L512.2,239.1L512.3,236.3L511.8,234.7L510.0,232.2L509.9,230.7L511.8,232.2Z M501.4,206.9L500.1,206.9L498.1,205.0L496.9,203.0L498.4,203.6L499.5,204.8L501.4,206.9Z M517.7,197.6L517.9,199.2L516.2,199.2L516.6,197.7L517.7,197.6Z M519.1,196.6L518.0,196.3L519.2,195.8L520.0,196.1Z M0.1,196.0L0.0,195.2L0.1,196.0Z M502.4,195.9L501.5,195.3L502.4,195.9Z M501.4,193.0L501.2,194.3L500.7,193.9L501.4,193.0Z M332.3,190.3L332.9,193.5L332.5,195.0L331.7,194.5L331.9,196.7L331.4,198.8L330.1,203.7L328.7,210.1L326.9,212.8L324.8,213.1L323.2,211.4L322.6,208.1L322.7,205.3L323.4,204.4L324.2,201.7L323.6,199.5L324.0,196.7L324.9,195.4L326.3,194.6L327.7,193.5L329.3,191.3L329.8,190.8L330.6,188.3L331.6,188.2L332.3,190.3Z M467.4,190.7L468.8,191.5L470.0,193.1L470.1,195.6L470.7,196.8L471.0,199.4L473.0,201.8L475.0,203.5L475.6,205.2L476.8,206.9L477.7,207.4L479.0,210.6L480.8,212.9L481.2,215.6L481.8,218.4L481.5,221.0L481.1,223.9L480.2,227.0L478.6,229.4L477.7,232.1L476.8,234.5L476.7,236.4L474.2,237.1L472.2,238.7L470.2,238.7L469.5,237.3L467.4,239.1L465.4,238.3L463.1,237.6L461.9,234.9L460.9,233.1L460.0,232.0L458.9,231.9L458.4,231.2L459.2,229.1L457.9,229.3L456.4,231.5L455.3,229.7L453.7,227.6L452.1,226.0L449.7,225.0L445.2,225.8L442.2,226.3L439.4,227.8L438.6,229.6L436.5,229.8L434.2,229.7L432.3,230.8L431.2,231.2L429.4,231.8L426.9,230.5L426.2,229.1L427.1,228.4L427.3,226.3L426.3,223.2L426.2,221.0L425.6,219.2L424.7,216.9L423.7,214.6L423.9,213.6L425.0,214.9L424.3,212.4L423.8,211.2L424.2,209.6L424.3,207.5L425.0,207.6L426.8,205.6L428.6,204.1L429.6,204.2L431.7,203.3L432.3,202.7L434.6,202.1L435.7,200.3L436.6,198.5L437.7,195.8L438.9,197.1L438.8,195.2L439.7,194.2L440.8,192.5L441.5,191.6L442.2,191.4L443.5,190.8L445.4,192.9L447.2,193.0L447.6,190.4L448.0,189.4L449.5,187.7L451.5,187.5L450.4,185.9L452.1,186.1L454.1,187.4L455.4,187.8L456.8,187.4L457.8,188.0L456.9,189.8L456.6,190.6L455.6,192.6L456.9,194.2L458.7,195.4L460.2,196.6L461.2,197.7L463.5,197.7L464.1,195.8L464.7,193.2L464.6,191.7L464.6,189.1L464.7,188.1L465.3,186.0L465.9,184.7L466.4,186.9L466.8,187.9L467.4,190.0Z M494.2,184.4L493.6,185.0L493.9,184.3Z M434.4,183.9L431.8,182.6L433.9,182.8L434.4,183.9Z M492.3,183.2L490.9,183.1L490.7,182.0L492.1,182.7Z M493.5,182.7L492.2,181.4L492.4,180.2L493.5,182.7Z M439.7,183.7L438.3,183.9L439.1,182.1L440.7,180.9L442.9,180.4L443.9,180.4L441.9,181.7L439.7,183.7Z M430.3,179.8L431.7,180.1L430.4,181.3L428.6,181.6L429.9,180.5Z M437.5,179.8L435.1,181.4L433.2,180.4L435.3,180.6L437.5,179.8Z M490.9,180.2L489.9,179.8L488.5,178.5L489.4,178.7L490.9,180.2Z M487.6,178.3L486.6,178.0L486.1,176.9L487.6,178.3Z M416.9,177.2L420.0,176.6L423.2,178.8L427.1,180.3L423.9,180.3L421.1,180.2L418.1,179.1L416.4,179.1L413.5,177.5L413.2,175.5L416.1,176.4L416.9,177.2Z M454.6,176.1L453.7,176.0L454.3,174.7L454.6,176.1Z M485.2,177.3L484.1,176.8L483.2,174.1L483.5,174.4L484.7,176.1L485.2,177.3Z M479.5,174.7L478.5,175.4L477.0,176.3L475.1,175.8L474.4,174.6L476.4,174.8L476.9,173.8L477.8,174.7L479.0,173.3L479.8,172.1L480.0,173.5Z M443.8,170.8L442.3,171.1L443.4,170.2Z M448.5,170.1L447.8,170.8L445.7,170.8L445.1,169.6L448.5,170.1Z M481.2,172.8L480.5,172.2L479.5,170.8L477.6,169.4L478.8,169.5L479.9,170.4L481.0,171.8Z M453.8,166.4L455.7,170.6L458.5,167.4L461.0,168.1L463.7,169.2L468.8,171.6L470.6,173.6L473.3,175.9L472.3,177.1L473.9,179.7L475.7,181.7L476.7,182.8L477.8,184.0L476.7,184.7L475.1,184.0L472.5,182.5L471.0,179.7L467.9,179.4L467.2,181.5L465.2,181.8L462.4,180.2L460.6,180.3L459.4,178.8L459.9,176.2L456.4,172.9L453.1,171.0L452.1,172.1L451.8,170.5L452.2,168.9L453.1,168.4L450.4,167.3L448.5,165.9L451.2,164.9L453.8,166.4Z M440.9,161.4L438.7,163.7L434.9,163.4L433.4,165.1L435.5,166.0L438.0,166.2L436.8,167.1L436.9,170.3L437.9,173.2L437.1,175.0L437.3,172.8L435.5,173.0L434.6,171.1L433.8,169.8L434.0,174.8L432.4,174.5L432.6,170.9L431.6,169.5L432.4,166.8L433.4,163.0L435.7,162.2L439.2,162.4L440.9,161.4Z M445.9,162.0L445.1,163.4L445.4,165.6L444.5,164.7L444.3,160.6L444.9,161.0L445.9,162.0Z M412.8,175.4L410.0,173.9L407.6,171.1L405.7,168.1L403.4,163.8L402.4,160.6L400.4,157.7L397.8,154.5L398.6,153.6L402.1,155.9L404.0,158.0L406.8,160.1L408.9,163.1L409.4,165.5L410.8,166.2L411.5,168.7L413.3,170.1L412.8,175.4Z M430.3,160.6L430.2,162.6L429.8,165.7L428.3,168.9L427.6,171.2L425.3,170.9L423.6,170.2L421.3,169.9L419.2,169.8L418.3,166.7L417.4,163.3L418.4,160.3L420.6,160.6L421.5,158.6L424.3,156.6L425.5,154.7L427.9,152.3L429.2,150.8L430.0,152.6L432.2,153.7L431.1,154.5L430.3,156.1L430.5,159.7Z M442.5,147.9L442.8,150.3L441.8,150.1L441.5,152.5L439.4,152.2L439.5,149.9L438.1,149.8L436.3,150.8L436.7,148.6L438.4,147.4L440.0,147.7L441.2,146.8L442.3,146.2L442.5,147.9Z M377.3,152.2L375.4,151.1L375.8,145.2L377.4,147.6L377.9,151.6Z M172.0,144.6L170.5,144.7L170.9,143.4L172.0,143.2Z M439.1,144.3L438.1,146.1L436.8,145.4L437.4,144.3L438.4,143.0L439.2,142.4Z M431.2,146.1L430.0,146.6L431.9,144.1L432.9,143.8L431.2,146.1Z M436.1,141.2L437.8,141.8L437.1,143.4L436.2,143.1L436.1,141.2Z M441.3,140.7L440.6,142.3L441.0,144.1L440.2,143.2L439.5,141.9L440.4,141.4L440.9,139.9Z M435.5,138.9L434.5,139.6L435.0,138.2Z M435.2,128.4L436.6,128.5L436.5,129.7L436.6,132.7L435.5,134.9L436.6,136.7L439.0,137.5L439.4,139.0L438.1,139.0L437.2,138.7L435.0,137.8L434.3,136.6L434.3,135.6L433.4,135.2L433.2,132.5L433.9,130.2L435.2,128.4Z M165.3,128.9L163.8,129.4L162.9,128.7L164.3,128.4L165.3,128.9Z M148.9,129.6L147.7,129.6L147.0,128.5L148.0,128.4L149.7,129.1L148.9,129.6Z M155.2,125.8L156.6,125.7L158.6,126.2L159.2,126.9L160.0,127.4L161.3,128.2L160.1,128.6L159.0,128.6L158.1,129.0L157.4,128.8L156.5,129.8L155.5,129.0L153.9,129.0L152.4,128.7L153.9,128.4L155.5,128.1L154.9,126.5L154.3,125.7Z M419.4,128.1L416.9,128.4L417.6,125.9L420.0,125.4L419.7,127.0Z M35.3,127.3L34.8,127.3L34.6,126.1L34.9,125.6L34.9,125.0L35.5,125.4L36.0,125.8L36.4,126.6L35.3,127.3Z M34.6,124.3L33.8,124.0L33.6,123.7L34.3,123.7L34.6,124.3Z M33.6,123.2L32.8,123.4L33.6,123.2Z M32.3,123.0L32.1,123.1L31.4,122.5L31.7,122.2L32.3,123.0Z M29.8,121.7L29.2,121.5L29.5,121.2L29.8,121.7Z M144.9,120.2L146.8,120.7L148.6,122.3L149.9,123.2L150.7,124.1L152.9,125.0L151.7,125.7L149.8,125.6L148.7,124.7L147.1,124.1L146.3,122.4L144.1,122.0L141.8,121.3L141.9,120.4L139.4,121.3L138.6,121.8L137.3,121.9L138.3,120.6L139.7,119.8L141.2,119.4L143.6,119.5Z M148.0,118.3L147.3,117.2L147.1,115.5L148.0,117.1Z M435.0,120.1L433.7,120.1L434.3,116.8L436.2,115.9L435.0,120.1Z M147.6,112.8L145.9,112.4L147.6,112.3Z M148.8,112.8L148.3,113.9L147.6,112.1L148.8,112.8Z M454.5,98.2L453.8,100.0L452.5,99.9L451.2,100.4L452.0,98.4L453.4,97.8Z M309.9,95.3L309.1,96.4L307.6,97.4L306.6,96.4L307.4,96.3L308.6,95.8Z M294.2,95.2L296.1,95.7L297.2,96.2L297.8,96.5L295.7,96.4L294.2,95.2Z M282.4,90.3L282.1,92.4L280.7,92.7L278.0,91.5L279.8,90.7L282.4,90.3Z M273.3,84.6L274.0,88.5L272.7,89.0L272.1,86.2L272.6,85.2Z M463.6,92.4L463.3,94.9L460.7,97.2L456.1,99.5L455.1,97.3L450.9,98.7L450.7,100.1L448.8,104.2L448.4,101.7L446.9,99.8L449.0,98.0L451.6,95.7L456.0,95.5L458.5,93.0L461.4,90.3L462.1,85.8L464.2,84.2L464.9,88.5L463.6,92.4Z M273.8,82.7L272.7,83.8L272.6,81.8L273.8,82.7Z M467.9,78.8L469.9,78.4L468.1,81.1L464.5,81.7L462.2,83.9L462.7,80.5L464.6,77.7L466.8,78.2Z M168.0,74.2L170.4,74.5L169.2,75.4L167.0,73.9L168.0,74.2Z M170.7,69.3L168.1,68.7L167.3,67.7L170.7,69.0Z M81.6,70.5L78.5,69.9L76.8,68.5L75.0,67.6L74.6,66.1L77.0,66.8L78.8,67.7L81.0,69.4Z M178.9,66.3L178.9,67.3L179.4,68.4L181.3,68.4L182.3,70.5L183.5,71.1L183.3,74.0L181.7,73.8L181.7,71.9L179.1,73.5L178.7,72.2L174.4,72.2L175.1,71.0L175.7,69.3L178.0,65.1L180.0,64.5L178.9,66.3Z M68.3,59.8L68.3,59.8L69.7,59.6L70.5,63.4L69.1,62.5L67.8,61.0L67.6,59.5Z M467.5,66.1L466.8,68.9L467.3,73.7L466.2,73.9L465.0,73.8L465.0,69.8L465.4,65.7L464.7,61.2L465.4,59.4L466.4,60.4L466.9,64.2Z M250.2,63.2L245.6,64.1L246.0,60.1L249.1,57.7L251.8,58.8L251.3,61.5Z M278.3,56.8L276.0,57.2L277.9,55.8Z M39.0,53.8L36.8,54.1L37.9,52.5L39.6,52.3L39.0,53.8Z M255.7,50.9L255.6,52.7L256.8,54.3L257.0,56.2L259.4,59.0L260.7,61.9L262.3,63.5L262.1,65.1L258.9,66.1L255.7,66.2L253.4,66.9L251.7,67.3L255.1,64.8L252.4,63.7L253.1,62.1L255.5,61.0L254.8,58.7L252.7,57.8L252.7,56.4L251.8,55.5L251.6,52.5L253.9,51.1Z M20.8,48.4L19.0,48.4L19.5,47.5L20.8,48.4Z M145.5,44.1L144.3,45.0L144.0,44.2L145.1,43.7Z M141.7,43.0L139.0,44.1L139.7,42.6L141.7,43.0Z M11.9,41.0L13.7,41.1L16.3,41.9L15.1,42.5L13.5,41.8L11.9,41.7Z M137.0,37.4L138.0,37.9L140.4,39.1L142.2,40.6L144.3,41.1L140.8,41.2L138.5,41.4L136.0,41.3L135.3,40.5L135.9,37.2Z M239.0,35.8L240.3,38.4L234.3,41.2L231.2,41.2L228.5,39.8L228.0,38.5L224.9,37.4L228.0,35.9L232.5,36.2L236.6,35.7Z M150.4,34.5L148.4,33.6L150.4,32.3L151.5,33.6L150.4,34.5Z M7.2,35.6L7.8,34.6L14.6,36.7L10.8,37.8L10.2,40.1L7.7,39.3L5.5,37.9L2.4,37.9L1.9,36.5L0.8,37.8L0.0,31.0L7.3,34.4Z M121.8,30.7L119.0,30.8L115.8,30.1L118.1,28.7L120.5,29.6L121.8,30.7Z M520.0,27.4L518.2,26.8L520.0,27.4Z M1.9,27.2L0.0,26.0L1.4,26.0L3.4,26.8Z M129.2,29.9L131.1,30.4L132.4,33.1L135.3,33.0L136.5,29.2L140.7,29.6L142.7,31.5L142.6,33.6L139.6,35.9L136.1,35.6L134.3,38.2L132.2,40.4L129.0,41.3L127.2,42.8L123.9,46.5L123.2,50.3L126.0,52.4L128.7,53.5L132.8,55.1L135.7,56.5L139.6,57.5L140.9,59.3L142.4,63.4L145.7,64.6L145.7,59.6L147.0,57.7L149.4,55.0L148.3,52.0L148.3,48.6L147.2,43.8L150.7,43.9L153.3,43.6L156.5,45.3L159.5,46.2L159.9,50.3L162.3,51.7L165.8,48.5L167.8,49.4L171.3,54.1L172.7,56.4L176.3,58.0L177.8,60.3L179.5,61.3L178.5,64.2L175.1,65.5L170.8,67.4L165.6,67.0L162.9,68.5L159.0,71.9L158.5,73.4L163.9,69.3L167.3,70.0L166.4,73.4L168.7,75.8L172.6,73.4L173.6,75.5L168.6,77.9L165.6,80.1L164.4,78.3L164.6,76.7L163.3,77.6L160.2,79.2L157.9,81.0L157.7,82.4L158.8,83.5L159.1,83.2L158.0,84.0L156.2,84.3L154.7,84.5L155.7,84.7L154.1,85.7L153.2,85.4L153.2,86.1L151.8,88.9L151.4,88.3L151.2,88.9L151.6,90.0L150.3,92.3L150.6,90.9L149.7,88.5L149.7,90.6L149.8,90.9L150.3,92.9L150.6,95.5L148.2,97.5L146.5,98.8L145.6,100.1L143.2,102.3L142.3,104.8L143.0,107.8L143.7,110.0L144.3,113.5L143.9,115.5L142.8,115.5L142.0,114.2L140.5,111.0L140.6,109.0L139.1,106.3L137.1,106.9L136.1,105.9L133.6,105.7L131.2,105.6L130.8,106.4L131.1,107.6L130.3,107.5L128.7,107.9L126.4,107.1L124.4,106.8L121.9,108.6L119.7,110.4L119.3,112.6L119.7,114.2L119.7,114.2L118.9,117.3L118.6,120.8L119.3,122.8L120.6,125.7L121.5,127.8L123.6,129.1L126.0,128.4L128.0,127.7L129.2,125.8L129.6,123.6L132.1,122.6L134.3,122.5L134.6,123.9L133.4,126.2L133.5,127.4L132.8,128.4L132.5,128.7L132.7,129.2L132.6,130.4L132.5,131.2L132.1,132.7L131.5,133.5L132.1,133.5L132.7,133.8L133.4,133.5L133.8,133.5L135.1,133.7L135.8,133.2L136.6,133.5L137.2,133.2L138.1,133.6L139.0,134.4L139.9,135.2L139.7,135.8L139.5,137.2L139.3,138.8L139.4,140.2L139.1,141.2L138.9,142.2L139.2,143.0L140.1,144.8L141.3,146.4L141.8,146.9L142.4,147.2L143.7,146.5L145.1,145.6L145.8,145.9L147.3,146.3L148.3,147.4L150.1,146.1L150.7,145.3L151.8,142.7L152.8,142.3L155.1,141.5L156.4,140.1L157.2,140.7L156.9,141.9L156.5,143.0L155.9,145.1L157.1,146.5L156.9,144.4L158.7,142.2L159.0,140.7L160.5,142.0L161.5,143.8L164.3,143.6L166.3,144.7L167.1,143.6L170.6,143.4L169.9,144.9L172.1,146.0L173.1,147.5L174.6,148.7L175.6,150.9L176.9,151.9L179.2,153.0L180.5,152.5L182.6,153.2L185.1,155.3L185.9,156.0L187.0,160.5L187.9,162.1L187.2,164.3L189.8,166.5L192.7,166.0L195.8,168.3L197.3,168.7L202.3,169.7L206.2,173.4L208.6,174.1L209.6,177.1L209.3,181.5L206.5,185.5L204.5,189.3L203.7,190.8L203.4,197.4L202.8,199.4L201.1,204.5L199.7,207.3L197.8,208.5L194.5,210.1L191.2,212.2L189.7,215.5L189.7,218.6L188.4,220.6L185.5,225.5L183.9,228.2L182.3,230.6L179.6,231.2L177.5,230.6L175.6,229.6L177.3,232.3L178.0,234.5L176.6,237.9L171.5,239.3L170.3,240.3L170.2,242.7L167.9,243.6L165.9,243.4L167.1,245.9L168.3,246.3L165.8,248.1L165.3,251.1L162.8,252.1L163.8,255.0L164.7,257.1L162.0,260.4L160.1,262.1L161.6,265.2L159.7,265.1L157.7,266.3L156.8,268.1L153.5,266.2L151.3,263.8L151.0,261.4L151.4,256.3L150.7,254.2L152.6,249.3L155.0,246.0L153.5,247.9L153.1,244.8L154.2,239.9L153.7,235.9L155.2,232.7L156.8,226.7L156.9,222.3L157.6,217.5L158.3,209.8L158.7,202.3L156.9,198.5L153.9,195.7L150.2,192.4L149.8,190.3L147.2,184.2L145.2,179.5L143.7,176.8L143.1,175.1L142.9,171.9L144.8,169.3L143.9,169.3L143.3,167.9L143.6,165.9L144.4,163.4L145.1,162.2L145.9,160.9L146.4,159.8L147.4,158.9L148.6,156.7L148.3,155.1L148.3,152.9L147.5,150.2L146.7,148.6L146.7,147.9L145.7,146.8L144.8,147.6L143.9,148.1L144.4,149.6L143.8,150.1L142.9,149.0L142.2,149.3L141.4,148.4L140.4,148.1L140.2,148.3L139.1,147.4L139.2,146.7L138.2,145.8L137.6,145.0L137.4,145.2L136.7,145.1L136.1,144.6L136.3,143.4L136.2,142.7L135.0,141.3L134.1,140.1L133.5,138.9L133.9,139.1L133.2,138.3L132.2,138.7L131.1,138.1L129.9,137.6L128.2,137.2L126.8,136.1L124.4,133.4L122.4,133.0L120.5,133.9L118.4,133.0L116.0,131.9L113.1,130.1L112.0,129.4L109.9,127.9L107.6,125.6L107.8,124.5L107.9,123.4L107.5,121.9L106.8,120.2L104.1,116.7L102.2,114.7L102.1,113.1L100.5,111.7L99.4,110.2L97.9,108.2L97.1,106.2L96.6,103.9L95.0,103.3L94.0,103.5L94.4,105.9L95.9,108.0L96.4,108.6L96.8,109.2L97.6,111.0L98.8,112.7L99.7,115.3L100.2,117.2L101.4,118.2L101.9,119.4L101.1,120.1L99.7,117.8L98.0,116.4L97.8,113.9L96.1,112.4L95.6,112.2L93.8,110.6L94.5,110.6L95.1,109.0L93.1,107.1L92.1,104.6L90.8,101.3L89.6,99.2L88.8,98.4L87.5,97.8L85.8,97.3L84.2,94.3L83.0,91.2L81.3,88.9L80.3,86.3L80.6,83.0L80.7,79.7L80.8,73.6L79.9,71.1L82.2,71.4L83.3,72.7L82.6,69.5L79.6,67.6L75.9,66.0L75.3,63.1L73.2,60.7L71.4,58.3L69.4,57.0L67.1,53.7L64.9,51.8L61.0,51.2L56.6,48.8L52.1,48.3L47.5,46.6L46.2,48.3L43.7,48.8L40.9,49.9L41.3,46.9L42.4,45.8L39.6,48.2L38.6,50.5L35.7,52.7L33.9,54.1L31.2,56.0L28.5,56.7L25.7,57.9L22.0,59.1L23.3,57.9L26.3,56.2L28.8,55.2L31.1,53.7L32.4,51.5L31.5,50.9L30.2,51.3L28.9,51.0L26.9,50.8L25.9,49.7L25.3,48.3L22.2,47.8L21.2,46.2L20.6,44.3L22.3,42.2L24.5,42.4L26.7,41.6L27.5,40.1L27.8,39.0L25.3,39.5L23.8,39.5L19.6,39.2L17.2,37.3L22.4,35.6L23.4,36.5L25.3,35.3L22.5,33.6L19.1,32.1L22.5,31.1L24.7,29.2L27.5,28.1L31.6,27.4L36.0,26.7L37.7,27.2L40.1,27.8L43.7,27.9L49.6,28.7L52.6,28.7L56.4,29.5L61.3,30.9L64.1,30.3L68.0,29.9L72.5,28.6L74.6,28.9L75.9,28.2L80.3,28.7L82.2,29.8L84.5,29.4L90.1,30.9L93.5,31.1L93.4,33.0L100.0,33.2L102.7,34.0L102.8,32.2L105.5,31.5L107.8,31.7L110.9,32.6L115.7,33.2L117.6,32.0L121.2,32.4L122.1,32.7L123.9,30.8L120.7,28.8L122.5,25.3L125.8,26.4L126.5,29.5Z M95.1,22.9L97.6,23.3L101.2,23.2L103.7,25.8L103.4,23.0L106.1,23.0L108.7,25.7L111.5,28.0L114.0,29.8L112.5,30.7L109.4,31.1L105.3,30.7L98.3,31.7L95.5,30.9L92.3,30.6L91.5,28.8L95.7,28.6L94.8,27.8L89.7,27.9L92.3,26.4L87.5,26.0L89.7,23.7L95.1,22.9Z M109.1,22.4L105.5,22.3L108.0,21.9Z M149.7,23.0L148.3,23.5L145.2,23.7L143.2,22.5L143.9,21.7L149.7,23.0Z M135.0,22.9L137.4,22.5L143.6,23.7L146.2,24.4L150.8,24.6L153.0,26.4L157.2,27.2L161.9,28.7L160.6,31.4L166.3,33.1L170.7,35.0L167.7,38.6L163.6,35.9L161.6,37.3L165.1,39.3L166.6,41.7L164.3,42.6L162.7,42.7L164.4,44.5L157.4,42.7L156.2,41.2L151.9,39.2L147.8,40.1L147.5,38.0L153.2,37.7L153.2,36.1L154.7,33.4L151.9,31.8L149.9,30.6L147.1,29.3L145.2,29.2L137.3,29.0L131.9,28.2L132.2,26.6L129.7,24.6L132.3,22.1L135.0,22.9Z M115.0,21.5L119.3,21.7L118.4,23.2L120.3,25.8L116.5,26.3L111.9,24.1L114.9,23.7L115.0,21.5Z M467.4,22.8L462.3,22.6L463.4,21.7L467.3,22.3Z M125.4,23.6L122.2,25.0L121.3,22.3L123.5,21.0L129.3,21.5L125.4,23.6Z M86.0,26.3L81.4,26.4L78.6,24.7L81.0,21.9L84.4,20.4L90.2,20.9L93.2,22.3L87.8,24.1L86.0,26.3Z M477.7,19.1L473.7,19.7L471.4,18.4L477.7,19.1Z M124.8,19.3L121.9,20.0L120.9,18.6L124.3,18.7Z M469.6,18.2L463.1,19.6L457.9,18.8L460.5,17.1L469.6,18.2Z M117.7,16.0L118.9,17.9L115.8,19.5L114.3,18.1L111.8,16.7L115.6,16.1L117.7,16.0Z M103.7,17.0L105.5,17.4L107.3,18.4L101.5,19.6L95.7,20.5L98.5,19.0L90.0,18.9L93.3,16.5L99.9,18.2L100.4,16.5L103.2,16.1Z M343.1,27.6L337.5,27.5L334.5,26.1L335.8,24.7L338.6,22.0L340.7,20.0L343.6,18.1L353.2,16.5L358.4,15.6L358.5,16.9L349.0,18.8L342.3,22.5L340.3,26.0Z M123.2,15.3L127.7,15.9L128.6,17.2L131.2,18.1L135.2,18.4L140.5,17.8L144.4,18.7L143.8,20.0L139.8,20.2L132.7,20.5L126.5,19.6L125.8,17.6L121.4,16.5L120.3,15.1Z M92.2,14.2L90.8,16.4L86.8,17.3L82.5,17.2L85.0,15.7L90.2,14.5Z M414.5,15.5L416.2,16.0L423.7,17.0L424.5,18.7L419.1,20.3L419.8,21.2L423.3,21.3L424.6,22.0L431.6,22.0L438.0,23.2L441.1,22.1L445.7,23.1L445.6,25.1L449.6,27.4L453.4,26.3L458.6,26.4L462.0,26.1L462.9,23.5L477.2,25.9L486.8,27.0L490.9,28.1L492.5,30.1L497.0,29.6L502.4,29.8L506.7,30.9L506.2,28.8L513.8,29.2L520.0,31.0L520.0,38.7L516.3,39.4L518.4,42.0L519.3,43.3L516.2,43.4L510.9,45.1L506.6,47.6L504.0,47.2L499.5,48.0L496.2,48.5L494.0,51.7L495.7,52.9L494.2,55.8L494.2,58.2L491.1,61.4L488.6,63.8L485.9,64.3L484.5,57.2L486.4,53.4L488.7,52.0L493.8,47.6L497.6,43.4L495.0,45.1L490.1,44.8L482.8,48.7L480.7,50.4L478.6,49.2L474.6,49.9L465.4,50.1L455.2,58.5L458.2,59.9L460.5,59.4L464.2,61.6L463.1,65.2L462.3,70.6L459.7,74.7L455.7,79.2L452.9,81.5L451.1,80.6L448.9,82.6L447.7,83.1L447.4,85.2L446.3,86.0L444.8,86.8L444.2,88.2L444.6,88.7L446.6,91.9L447.0,95.3L445.2,96.8L442.7,97.7L442.8,95.2L443.2,92.9L441.6,90.9L441.0,91.4L440.5,90.9L440.5,89.7L440.7,89.1L441.0,87.8L439.5,87.0L436.4,88.5L435.6,88.1L436.5,86.1L434.4,85.8L431.9,88.3L429.8,89.3L431.7,91.0L432.9,92.4L435.8,91.8L437.0,92.8L434.3,94.4L432.1,96.7L434.2,99.7L436.1,102.9L435.2,104.9L436.4,106.5L435.8,109.6L433.9,111.9L431.4,116.7L427.4,120.1L424.9,121.2L423.6,121.6L420.0,122.8L418.7,125.0L418.7,122.8L416.1,122.5L412.9,126.0L413.7,129.4L416.4,133.1L417.9,138.2L416.5,142.9L413.7,145.7L411.4,146.3L410.7,143.9L408.9,142.6L406.9,139.7L405.9,138.2L404.5,140.4L403.2,144.9L404.3,146.4L405.1,149.8L406.8,151.1L407.9,152.3L409.3,154.8L409.3,156.9L409.5,158.7L410.6,161.0L409.5,161.8L406.5,158.8L405.4,156.5L404.7,153.9L404.6,151.7L403.8,150.0L402.3,148.0L401.8,148.0L402.4,145.0L402.7,142.0L402.3,138.8L401.2,135.5L400.3,131.4L397.8,133.8L396.1,133.2L396.2,129.0L395.3,126.0L393.4,124.2L392.9,122.2L392.0,120.2L390.8,120.9L389.8,121.6L389.2,121.7L388.4,122.3L385.6,122.6L384.9,125.2L381.2,128.8L378.7,131.3L378.0,132.6L376.0,133.4L375.9,137.4L375.4,140.9L374.6,144.2L374.4,146.3L372.6,148.2L370.6,147.0L369.4,142.3L368.1,139.5L367.5,135.9L365.6,129.5L365.2,124.7L362.8,124.1L359.9,121.5L360.2,120.0L357.4,117.9L355.9,115.0L350.9,115.4L346.1,115.1L342.9,114.4L341.6,111.7L339.0,113.0L335.8,110.9L333.5,108.5L331.6,106.2L330.2,106.3L329.6,107.1L329.9,109.0L331.2,111.1L332.4,112.6L332.4,114.0L333.0,115.2L333.4,116.3L333.7,113.9L334.5,114.3L334.2,116.6L334.8,117.2L335.9,117.5L338.0,117.6L340.1,115.0L341.4,113.2L341.5,114.1L341.5,116.0L342.9,118.0L344.8,118.6L345.9,120.4L346.4,121.1L345.6,122.7L344.5,124.7L343.5,125.0L343.5,127.3L342.7,127.5L341.6,129.2L340.4,129.6L339.8,130.9L338.3,131.2L336.7,132.0L335.4,133.4L333.9,134.8L330.3,137.1L329.2,137.1L327.5,138.3L325.9,138.5L325.2,139.1L324.3,139.6L322.8,139.7L322.5,137.6L322.0,135.6L321.8,134.7L321.9,133.4L321.6,131.7L321.1,130.4L319.5,128.1L318.1,125.2L316.5,123.0L316.4,120.5L314.9,117.6L313.7,116.1L313.3,114.7L312.4,112.8L310.7,109.9L310.2,108.9L310.5,107.4L310.0,107.9L309.3,110.4L308.5,110.1L306.8,106.5L307.3,108.7L309.3,113.7L310.3,115.8L311.3,118.3L313.0,121.3L313.7,123.5L313.6,125.9L314.7,128.7L316.3,131.6L317.5,134.3L320.3,137.3L321.5,139.0L322.6,140.2L321.7,141.5L322.8,142.4L323.7,144.0L325.8,143.5L328.6,142.7L329.9,142.2L331.2,142.1L332.6,141.6L333.8,140.9L333.7,142.6L333.4,144.3L332.3,148.5L330.2,153.8L327.3,158.6L323.7,162.1L320.7,165.9L320.1,167.4L318.7,169.0L318.0,170.5L317.2,172.5L316.0,175.5L317.0,177.3L316.6,179.0L316.6,180.5L317.7,183.6L318.5,184.9L318.6,188.5L318.9,192.5L317.9,195.2L315.7,197.2L312.4,200.2L310.8,201.9L310.1,203.7L311.1,206.3L311.4,206.8L311.1,209.6L311.2,210.7L309.4,212.1L307.1,213.8L307.5,214.8L307.1,217.2L306.5,219.7L305.2,220.9L304.2,222.9L301.8,226.3L299.7,228.3L297.4,229.2L296.4,229.4L294.1,229.4L292.6,229.5L289.9,230.6L288.3,231.4L287.2,230.7L286.5,230.1L286.4,228.4L286.4,226.8L285.4,223.5L284.6,221.8L282.5,217.9L281.7,214.6L280.8,210.2L280.6,206.8L279.3,204.4L278.2,200.9L276.9,197.5L277.0,194.6L277.6,192.0L278.4,189.5L279.7,187.4L279.8,184.9L279.0,183.0L278.7,181.4L278.7,178.8L277.7,176.3L277.6,175.3L276.0,171.8L273.6,168.3L272.8,165.6L273.4,163.6L273.4,161.9L274.1,158.2L272.9,156.6L272.3,155.5L270.8,155.6L269.7,155.9L267.7,154.7L266.2,152.0L263.9,152.1L261.5,152.7L258.5,154.5L255.9,154.5L254.2,154.1L251.6,154.5L249.1,155.8L248.5,155.7L245.7,153.3L243.5,151.0L242.0,150.1L241.0,148.4L240.2,145.8L239.3,144.8L238.8,143.6L238.1,142.8L236.8,141.9L236.4,141.0L235.9,140.2L235.9,137.9L234.5,135.7L235.9,134.0L236.1,131.9L236.7,129.2L236.3,126.3L236.1,124.4L235.4,122.8L236.0,121.3L236.4,119.7L237.7,117.1L238.6,115.7L239.1,113.4L241.0,110.8L243.1,109.8L245.0,107.9L245.8,103.9L246.6,101.3L248.9,99.1L251.0,96.3L252.5,95.1L254.7,95.8L256.9,96.2L259.8,94.8L262.1,93.5L267.0,93.0L269.0,92.5L271.2,92.9L273.7,92.0L274.7,93.2L276.0,92.9L275.3,94.7L275.6,96.9L274.9,98.9L276.0,99.8L278.3,100.8L280.1,101.0L282.7,103.5L286.0,104.7L288.3,105.2L288.6,102.8L290.1,101.0L293.1,101.1L294.1,102.0L296.0,102.5L298.3,103.1L301.1,104.2L302.9,103.9L304.7,103.2L306.2,104.4L307.7,104.2L309.5,103.9L309.8,103.1L310.5,100.7L310.7,100.2L312.0,97.3L311.9,95.8L311.7,94.1L311.4,93.5L309.1,94.2L305.8,93.4L303.9,94.1L301.5,93.3L299.1,91.4L298.7,88.9L299.4,86.1L302.2,84.5L306.7,83.5L310.8,83.0L315.4,85.1L318.3,84.9L320.2,83.1L319.0,81.1L317.7,80.3L314.2,77.9L314.0,76.5L314.4,74.1L316.5,72.9L314.1,73.3L311.7,74.1L310.6,76.0L312.8,76.3L310.9,77.4L308.1,78.1L306.9,76.6L308.5,75.6L305.9,74.7L304.4,74.2L302.8,76.7L302.1,77.6L301.3,79.7L300.0,81.9L300.6,83.8L301.6,84.9L299.3,85.6L297.6,85.7L296.8,85.3L294.3,85.6L294.5,87.0L293.0,86.0L293.0,87.6L293.2,88.9L294.7,90.3L293.4,90.9L292.9,92.1L292.5,93.8L290.8,91.4L289.9,89.3L289.1,87.6L288.8,87.1L287.9,85.5L288.2,83.6L287.7,83.1L286.7,82.1L284.5,80.7L281.9,78.7L281.6,77.7L280.6,76.8L279.7,77.0L279.8,76.3L279.0,75.8L277.9,77.5L278.2,79.0L280.3,81.6L283.0,83.1L283.0,83.9L285.3,85.2L286.7,86.6L285.6,86.4L283.8,87.3L284.6,89.0L283.3,90.8L282.7,90.3L283.3,88.9L282.3,86.8L281.2,85.7L279.7,84.6L277.5,83.6L275.2,81.2L274.0,79.1L272.2,78.7L270.7,79.8L266.6,80.3L264.3,82.1L263.0,84.5L261.0,85.6L259.6,88.2L259.3,90.2L257.9,91.8L255.1,93.3L252.8,94.0L251.5,94.6L250.6,92.8L248.7,93.0L247.1,92.9L247.2,90.2L246.2,89.3L246.9,87.4L247.3,85.4L247.0,83.9L247.0,81.9L248.5,79.7L252.2,80.0L254.9,80.2L258.0,79.1L256.8,73.3L253.5,71.5L255.2,69.7L257.2,68.0L261.9,67.3L263.6,65.4L265.5,64.5L268.8,60.8L270.3,60.5L271.7,60.8L272.4,59.1L271.7,56.9L271.9,54.4L273.6,53.7L275.3,52.7L274.8,54.3L275.8,55.1L275.0,55.6L274.3,58.0L275.8,59.2L277.3,59.5L279.7,59.7L281.4,59.8L285.5,58.2L287.0,59.0L288.7,58.2L290.4,55.9L291.2,53.3L293.7,54.1L295.1,52.5L294.8,51.6L293.7,49.8L297.4,49.0L300.4,49.3L300.5,47.3L295.4,48.2L292.2,47.5L291.1,45.0L291.1,42.1L295.7,38.8L296.5,37.6L292.0,37.2L290.9,39.8L285.8,43.0L285.8,47.0L285.8,50.3L283.8,54.0L281.2,55.6L278.7,57.2L277.0,53.2L275.0,49.3L270.2,52.0L267.7,48.9L268.5,43.2L275.2,39.6L281.3,33.2L287.7,29.3L293.3,28.6L298.1,27.1L305.2,28.1L304.9,29.8L308.8,30.3L318.2,33.0L319.4,35.2L315.4,36.7L307.9,35.5L310.5,39.8L313.5,40.8L312.7,39.0L317.2,39.5L317.4,37.7L322.1,35.9L324.3,35.2L323.8,32.9L326.8,32.3L325.8,33.7L326.9,35.4L329.5,33.7L337.6,31.2L337.3,32.4L340.1,32.0L344.9,31.1L348.2,31.0L347.5,29.3L353.7,30.4L359.9,31.6L358.4,30.2L357.2,29.1L356.3,27.0L360.0,23.5L364.8,23.6L363.8,26.2L365.1,28.2L366.4,32.0L363.0,36.1L365.2,35.7L367.2,34.2L367.6,32.2L366.7,30.8L367.5,27.7L368.2,24.9L368.6,23.5L368.8,26.4L369.6,25.3L375.1,24.5L376.4,24.0L378.8,21.5L385.4,21.4L385.9,19.1L390.4,18.1L394.7,17.3L399.6,17.5L405.5,16.5L407.3,14.9L413.2,14.7L414.5,15.5Z M330.9,84.4L332.3,85.9L331.6,86.6L331.1,88.7L330.6,90.1L332.4,92.0L335.5,93.3L337.9,92.3L337.8,88.9L337.1,86.9L336.4,85.2L339.1,85.1L337.6,82.8L336.3,84.7L335.8,83.0L335.8,81.5L333.5,79.1L332.7,78.0L334.1,76.8L336.6,76.7L336.6,73.7L333.9,73.3L330.9,74.5L328.9,76.0L328.7,79.8L330.2,83.4Z M124.5,14.4L121.1,14.4L123.6,13.9L124.5,14.4Z M100.8,14.1L96.0,14.0L99.3,13.2L100.8,14.1Z M295.7,13.8L289.9,14.1L290.1,13.0L293.6,13.4Z M101.6,12.4L97.4,12.7L98.9,11.9L101.6,12.4Z M121.6,13.4L118.3,13.4L117.5,11.8L120.2,12.0L121.6,13.4Z M115.5,12.9L113.7,13.5L108.1,12.8L107.7,11.7L110.5,11.3L115.5,12.9Z M411.8,12.9L406.3,11.1L408.5,11.0L411.8,12.9Z M286.4,10.2L287.5,12.4L285.4,14.2L283.0,15.9L281.2,14.0L276.2,11.8L279.0,9.6L281.9,10.3L284.5,9.6Z M296.8,8.9L297.4,10.6L289.0,10.5L286.7,9.9L289.5,8.5L293.1,8.4Z M333.9,8.6L330.6,9.0L328.7,9.6L328.0,8.6L327.6,8.2L330.1,8.7L332.3,7.9L333.9,8.6Z M404.4,11.8L397.2,11.5L393.7,9.4L395.5,7.7L401.4,8.2L404.4,11.8Z M134.3,10.3L134.1,11.5L128.8,13.1L124.3,12.1L125.5,10.9L121.2,10.2L121.3,8.5L123.8,7.8L126.5,7.2L130.8,8.7L134.3,10.3Z M161.1,3.7L168.0,4.1L170.6,5.1L163.6,6.3L165.4,6.7L159.7,8.5L154.2,10.4L148.9,11.0L149.9,11.5L149.7,13.2L146.8,14.5L145.0,15.5L147.5,15.9L139.9,16.5L133.5,16.6L130.6,15.5L132.5,13.7L137.3,14.4L132.9,12.8L136.7,11.6L135.0,10.2L138.4,9.3L141.8,8.8L133.5,8.7L129.7,7.2L127.7,6.0L131.5,5.6L136.5,4.5L139.9,5.2L142.9,3.8L149.9,3.5L154.8,3.4L161.1,3.7Z M220.9,2.9L227.2,5.1L213.9,5.4L219.8,5.5L226.9,5.6L226.5,7.4L237.2,6.0L242.4,7.2L235.7,9.0L234.4,9.4L231.5,12.1L233.3,15.5L228.7,16.2L231.7,18.8L232.0,20.7L230.5,21.6L228.0,22.6L227.8,23.9L224.9,23.9L226.1,24.9L228.6,27.7L224.9,27.3L223.6,27.5L225.7,28.6L223.8,30.4L215.7,32.6L212.6,33.3L207.5,36.7L204.6,37.3L201.3,38.9L200.5,41.6L198.7,44.6L197.3,48.1L193.2,46.6L188.9,45.6L185.4,41.3L184.5,38.3L183.0,35.1L183.5,32.1L186.2,30.6L184.9,29.8L182.8,30.3L180.9,28.4L182.8,27.4L183.3,26.6L180.6,26.2L181.0,24.0L178.9,21.9L175.4,19.1L171.5,17.2L164.6,17.1L159.4,16.6L160.7,14.8L157.4,14.2L154.3,12.7L165.1,10.8L161.7,9.4L168.0,7.3L169.5,6.2L177.4,5.4L183.4,6.0L190.7,5.7L195.7,6.4L192.5,4.6L202.4,3.5L209.3,2.6Z" fill="#f8fafc" opacity=".72"/>
  <circle cx="117.7" cy="87.3" r="54" fill="#38bdf8" opacity=".24"/>
  <circle cx="117.7" cy="87.3" r="19" fill="#ef4444"/>
  <circle cx="117.7" cy="87.3" r="78" fill="none" stroke="#ef4444" stroke-width="8" opacity=".58"/>
</g></g>
</svg>