<svg xmlns="http://www.w3.org/2000/svg" width="720" height="405" viewBox="0 0 720 405">
  <defs>
    <linearGradient id="bg" x1="0" x2="1" y1="0" y2="1">
      <stop offset="0" stop-color="#20111d"/>
      <stop offset="1" stop-color="#7c3aed"/>
    </linearGradient>
    <radialGradient id="glow" cx="50%" cy="50%" r="50%">
      <stop offset="0" stop-color="#fb7185" stop-opacity=".72"/>
      <stop offset="1" stop-color="#fb7185" stop-opacity="0"/>
    </radialGradient>
    <filter id="shadow" x="-20%" y="-20%" width="140%" height="140%">
      <feDropShadow dx="0" dy="18" stdDeviation="18" flood-color="#000000" flood-opacity=".24"/>
    </filter>
  </defs>
  <rect width="720" height="405" fill="url(#bg)"/>
  <circle cx="549" cy="113" r="190" fill="url(#glow)"/>
  <g opacity=".22">
  <circle cx="64" cy="310" r="80" fill="#fb7185"/>
  <path d="M0 318C88 268 142 338 224 284s146-38 220 12 156 44 276-24v133H0z" fill="#fff7ed" opacity=".08"/>
  <path d="M101 54h520" stroke="#fff7ed" stroke-width="2" opacity=".18"/>
  <path d="M101 354h520" stroke="#fff7ed" stroke-width="2" opacity=".14"/>
</g>
  <g filter="url(#shadow)"><g transform="translate(156 130)">
  <rect x="20" y="32" width="350" height="170" rx="70" fill="#fb7185" opacity=".22" stroke="#fff7ed" stroke-width="22"/>
  <path d="M112 78v78M73 117h78M268 96h2M318 138h2" stroke="#fff7ed" stroke-width="24" stroke-linecap="round"/>
</g></g>
</svg>