<svg xmlns="http://www.w3.org/2000/svg" width="720" height="405" viewBox="0 0 720 405">
  <defs>
    <linearGradient id="bg" x1="0" x2="1" y1="0" y2="1">
      <stop offset="0" stop-color="#101522"/>
      <stop offset="1" stop-color="#374151"/>
    </linearGradient>
    <radialGradient id="glow" cx="50%" cy="50%" r="50%">
      <stop offset="0" stop-color="#38bdf8" stop-opacity=".72"/>
      <stop offset="1" stop-color="#38bdf8" stop-opacity="0"/>
    </radialGradient>
    <filter id="shadow" x="-20%" y="-20%" width="140%" height="140%">
      <feDropShadow dx="0" dy="18" stdDeviation="18" flood-color="#000000" flood-opacity=".24"/>
    </filter>
  </defs>
  <rect width="720" height="405" fill="url(#bg)"/>
  <circle cx="559" cy="112" r="190" fill="url(#glow)"/>
  <g opacity=".22">
  <circle cx="48" cy="310" r="80" fill="#38bdf8"/>
  <path d="M0 318C88 268 142 338 224 284s146-38 220 12 156 44 276-24v133H0z" fill="#f8fafc" opacity=".08"/>
  <path d="M121 54h520" stroke="#f8fafc" stroke-width="2" opacity=".18"/>
  <path d="M121 354h520" stroke="#f8fafc" stroke-width="2" opacity=".14"/>
</g>
  <g filter="url(#shadow)"><g transform="translate(230 64)">
  <path d="M106 18v92L30 246c-18 34 6 72 44 72h156c38 0 62-38 44-72L198 110V18" fill="none" stroke="#f8fafc" stroke-width="22" stroke-linecap="round"/>
  <path d="M68 236h166" stroke="#38bdf8" stroke-width="34" stroke-linecap="round"/>
  <circle cx="210" cy="178" r="20" fill="#38bdf8"/><circle cx="126" cy="270" r="16" fill="#38bdf8"/>
</g></g>
</svg>