<svg xmlns="http://www.w3.org/2000/svg" width="720" height="405" viewBox="0 0 720 405">
  <defs>
    <linearGradient id="bg" x1="0" x2="1" y1="0" y2="1">
      <stop offset="0" stop-color="#101522"/>
      <stop offset="1" stop-color="#374151"/>
    </linearGradient>
    <radialGradient id="glow" cx="50%" cy="50%" r="50%">
      <stop offset="0" stop-color="#38bdf8" stop-opacity=".72"/>
      <stop offset="1" stop-color="#38bdf8" stop-opacity="0"/>
    </radialGradient>
    <filter id="shadow" x="-20%" y="-20%" width="140%" height="140%">
      <feDropShadow dx="0" dy="18" stdDeviation="18" flood-color="#000000" flood-opacity=".24"/>
    </filter>
  </defs>
  <rect width="720" height="405" fill="url(#bg)"/>
  <circle cx="483" cy="107" r="190" fill="url(#glow)"/>
  <g opacity=".22">
  <circle cx="45" cy="310" r="80" fill="#38bdf8"/>
  <path d="M0 318C88 268 142 338 224 284s146-38 220 12 156 44 276-24v133H0z" fill="#f8fafc" opacity=".08"/>
  <path d="M137 54h520" stroke="#f8fafc" stroke-width="2" opacity=".18"/>
  <path d="M137 354h520" stroke="#f8fafc" stroke-width="2" opacity=".14"/>
</g>
  <g filter="url(#shadow)"><g transform="translate(198 76)">
  <circle cx="160" cy="160" r="138" fill="#38bdf8" opacity=".18" stroke="#f8fafc" stroke-width="20"/>
  <path d="M84 184l58-76 52 50 72-112" fill="none" stroke="#f8fafc" stroke-width="26" stroke-linecap="round" stroke-linejoin="round"/>
  <circle cx="84" cy="184" r="18" fill="#38bdf8"/><circle cx="142" cy="108" r="18" fill="#38bdf8"/><circle cx="194" cy="158" r="18" fill="#38bdf8"/><circle cx="266" cy="46" r="18" fill="#38bdf8"/>
</g></g>
</svg>