<svg xmlns="http://www.w3.org/2000/svg" width="720" height="405" viewBox="0 0 720 405">
  <defs>
    <linearGradient id="bg" x1="0" x2="1" y1="0" y2="1">
      <stop offset="0" stop-color="#102018"/>
      <stop offset="1" stop-color="#0f766e"/>
    </linearGradient>
    <radialGradient id="glow" cx="50%" cy="50%" r="50%">
      <stop offset="0" stop-color="#facc15" stop-opacity=".72"/>
      <stop offset="1" stop-color="#facc15" stop-opacity="0"/>
    </radialGradient>
    <filter id="shadow" x="-20%" y="-20%" width="140%" height="140%">
      <feDropShadow dx="0" dy="18" stdDeviation="18" flood-color="#000000" flood-opacity=".24"/>
    </filter>
  </defs>
  <rect width="720" height="405" fill="url(#bg)"/>
  <circle cx="551" cy="65" r="190" fill="url(#glow)"/>
  <g opacity=".22">
  <circle cx="44" cy="310" r="80" fill="#facc15"/>
  <path d="M0 318C88 268 142 338 224 284s146-38 220 12 156 44 276-24v133H0z" fill="#f8fafc" opacity=".08"/>
  <path d="M125 54h520" stroke="#f8fafc" stroke-width="2" opacity=".18"/>
  <path d="M125 354h520" stroke="#f8fafc" stroke-width="2" opacity=".14"/>
</g>
  <g filter="url(#shadow)"><g transform="translate(235 110)">
  <rect x="0" y="0" width="92" height="92" fill="#f25022"/>
  <rect x="108" y="0" width="92" height="92" fill="#7fba00"/>
  <rect x="0" y="108" width="92" height="92" fill="#00a4ef"/>
  <rect x="108" y="108" width="92" height="92" fill="#ffb900"/>
</g></g>
</svg>