<svg xmlns="http://www.w3.org/2000/svg" width="720" height="405" viewBox="0 0 720 405">
  <defs>
    <linearGradient id="bg" x1="0" x2="1" y1="0" y2="1">
      <stop offset="0" stop-color="#21160f"/>
      <stop offset="1" stop-color="#c2410c"/>
    </linearGradient>
    <radialGradient id="glow" cx="50%" cy="50%" r="50%">
      <stop offset="0" stop-color="#f59e0b" stop-opacity=".72"/>
      <stop offset="1" stop-color="#f59e0b" stop-opacity="0"/>
    </radialGradient>
    <filter id="shadow" x="-20%" y="-20%" width="140%" height="140%">
      <feDropShadow dx="0" dy="18" stdDeviation="18" flood-color="#000000" flood-opacity=".24"/>
    </filter>
  </defs>
  <rect width="720" height="405" fill="url(#bg)"/>
  <circle cx="504" cy="120" r="190" fill="url(#glow)"/>
  <g opacity=".22">
  <circle cx="54" cy="310" r="80" fill="#f59e0b"/>
  <path d="M0 318C88 268 142 338 224 284s146-38 220 12 156 44 276-24v133H0z" fill="#fff7ed" opacity=".08"/>
  <path d="M116 54h520" stroke="#fff7ed" stroke-width="2" opacity=".18"/>
  <path d="M116 354h520" stroke="#fff7ed" stroke-width="2" opacity=".14"/>
</g>
  <g filter="url(#shadow)"><g transform="translate(170 92)">
  <rect x="0" y="0" width="340" height="210" rx="24" fill="#fff7ed" opacity=".9"/>
  <rect x="26" y="26" width="288" height="158" rx="12" fill="#f59e0b" opacity=".42"/>
  <path d="M170 210v54M104 264h132" stroke="#fff7ed" stroke-width="18" stroke-linecap="round"/>
</g></g>
</svg>