<svg xmlns="http://www.w3.org/2000/svg" width="720" height="405" viewBox="0 0 720 405">
  <defs>
    <linearGradient id="bg" x1="0" x2="1" y1="0" y2="1">
      <stop offset="0" stop-color="#21160f"/>
      <stop offset="1" stop-color="#c2410c"/>
    </linearGradient>
    <radialGradient id="glow" cx="50%" cy="50%" r="50%">
      <stop offset="0" stop-color="#f59e0b" stop-opacity=".72"/>
      <stop offset="1" stop-color="#f59e0b" stop-opacity="0"/>
    </radialGradient>
    <filter id="shadow" x="-20%" y="-20%" width="140%" height="140%">
      <feDropShadow dx="0" dy="18" stdDeviation="18" flood-color="#000000" flood-opacity=".24"/>
    </filter>
  </defs>
  <rect width="720" height="405" fill="url(#bg)"/>
  <circle cx="552" cy="111" r="190" fill="url(#glow)"/>
  <g opacity=".22">
  <circle cx="53" cy="310" r="80" fill="#f59e0b"/>
  <path d="M0 318C88 268 142 338 224 284s146-38 220 12 156 44 276-24v133H0z" fill="#fff7ed" opacity=".08"/>
  <path d="M106 54h520" stroke="#fff7ed" stroke-width="2" opacity=".18"/>
  <path d="M106 354h520" stroke="#fff7ed" stroke-width="2" opacity=".14"/>
</g>
  <g filter="url(#shadow)"><g>
  <circle cx="330" cy="210" r="124" fill="none" stroke="#4285f4" stroke-width="34" stroke-dasharray="205 575"/>
  <circle cx="330" cy="210" r="124" fill="none" stroke="#34a853" stroke-width="34" stroke-dasharray="150 630" stroke-dashoffset="-205"/>
  <circle cx="330" cy="210" r="124" fill="none" stroke="#fbbc05" stroke-width="34" stroke-dasharray="112 668" stroke-dashoffset="-355"/>
  <circle cx="330" cy="210" r="124" fill="none" stroke="#ea4335" stroke-width="34" stroke-dasharray="180 600" stroke-dashoffset="-467"/>
  <path d="M330 210h132" stroke="#fff7ed" stroke-width="34" stroke-linecap="round"/>
  <circle cx="330" cy="210" r="54" fill="#f59e0b" opacity=".18"/>
</g></g>
</svg>