<svg xmlns="http://www.w3.org/2000/svg" width="720" height="405" viewBox="0 0 720 405">
  <defs>
    <linearGradient id="bg" x1="0" x2="1" y1="0" y2="1">
      <stop offset="0" stop-color="#101827"/>
      <stop offset="1" stop-color="#1d4ed8"/>
    </linearGradient>
    <radialGradient id="glow" cx="50%" cy="50%" r="50%">
      <stop offset="0" stop-color="#22c55e" stop-opacity=".72"/>
      <stop offset="1" stop-color="#22c55e" stop-opacity="0"/>
    </radialGradient>
    <filter id="shadow" x="-20%" y="-20%" width="140%" height="140%">
      <feDropShadow dx="0" dy="18" stdDeviation="18" flood-color="#000000" flood-opacity=".24"/>
    </filter>
  </defs>
  <rect width="720" height="405" fill="url(#bg)"/>
  <circle cx="584" cy="108" r="190" fill="url(#glow)"/>
  <g opacity=".22">
  <circle cx="70" cy="310" r="80" fill="#22c55e"/>
  <path d="M0 318C88 268 142 338 224 284s146-38 220 12 156 44 276-24v133H0z" fill="#eff6ff" opacity=".08"/>
  <path d="M89 54h520" stroke="#eff6ff" stroke-width="2" opacity=".18"/>
  <path d="M89 354h520" stroke="#eff6ff" stroke-width="2" opacity=".14"/>
</g>
  <g filter="url(#shadow)"><g>
  <circle cx="330" cy="216" r="132" fill="#22c55e" opacity=".16"/>
  <circle cx="330" cy="152" r="46" fill="none" stroke="#eff6ff" stroke-width="18" opacity=".9"/><circle cx="386" cy="184" r="46" fill="none" stroke="#eff6ff" stroke-width="18" opacity=".9"/><circle cx="386" cy="248" r="46" fill="none" stroke="#eff6ff" stroke-width="18" opacity=".9"/><circle cx="330" cy="280" r="46" fill="none" stroke="#eff6ff" stroke-width="18" opacity=".9"/><circle cx="274" cy="248" r="46" fill="none" stroke="#eff6ff" stroke-width="18" opacity=".9"/><circle cx="274" cy="184" r="46" fill="none" stroke="#eff6ff" stroke-width="18" opacity=".9"/>
  <circle cx="330" cy="216" r="34" fill="#22c55e" opacity=".9"/>
</g></g>
</svg>