<svg xmlns="http://www.w3.org/2000/svg" width="720" height="405" viewBox="0 0 720 405">
  <defs>
    <linearGradient id="bg" x1="0" x2="1" y1="0" y2="1">
      <stop offset="0" stop-color="#21160f"/>
      <stop offset="1" stop-color="#c2410c"/>
    </linearGradient>
    <radialGradient id="glow" cx="50%" cy="50%" r="50%">
      <stop offset="0" stop-color="#f59e0b" stop-opacity=".72"/>
      <stop offset="1" stop-color="#f59e0b" stop-opacity="0"/>
    </radialGradient>
    <filter id="shadow" x="-20%" y="-20%" width="140%" height="140%">
      <feDropShadow dx="0" dy="18" stdDeviation="18" flood-color="#000000" flood-opacity=".24"/>
    </filter>
  </defs>
  <rect width="720" height="405" fill="url(#bg)"/>
  <circle cx="520" cy="60" r="190" fill="url(#glow)"/>
  <g opacity=".22">
  <circle cx="74" cy="310" r="80" fill="#f59e0b"/>
  <path d="M0 318C88 268 142 338 224 284s146-38 220 12 156 44 276-24v133H0z" fill="#fff7ed" opacity=".08"/>
  <path d="M148 54h520" stroke="#fff7ed" stroke-width="2" opacity=".18"/>
  <path d="M148 354h520" stroke="#fff7ed" stroke-width="2" opacity=".14"/>
</g>
  <g filter="url(#shadow)"><g transform="translate(180 78)">
  <path d="M174 0l160 84H14zM52 116h256M78 116v156M142 116v156M206 116v156M270 116v156M34 272h292" fill="none" stroke="#fff7ed" stroke-width="24" stroke-linejoin="round"/>
  <rect x="48" y="292" width="252" height="28" fill="#f59e0b" opacity=".72"/>
</g></g>
</svg>