<svg xmlns="http://www.w3.org/2000/svg" width="720" height="405" viewBox="0 0 720 405">
  <defs>
    <linearGradient id="bg" x1="0" x2="1" y1="0" y2="1">
      <stop offset="0" stop-color="#121821"/>
      <stop offset="1" stop-color="#475569"/>
    </linearGradient>
    <radialGradient id="glow" cx="50%" cy="50%" r="50%">
      <stop offset="0" stop-color="#14b8a6" stop-opacity=".72"/>
      <stop offset="1" stop-color="#14b8a6" stop-opacity="0"/>
    </radialGradient>
    <filter id="shadow" x="-20%" y="-20%" width="140%" height="140%">
      <feDropShadow dx="0" dy="18" stdDeviation="18" flood-color="#000000" flood-opacity=".24"/>
    </filter>
  </defs>
  <rect width="720" height="405" fill="url(#bg)"/>
  <circle cx="594" cy="73" r="190" fill="url(#glow)"/>
  <g opacity=".22">
  <circle cx="37" cy="310" r="80" fill="#14b8a6"/>
  <path d="M0 318C88 268 142 338 224 284s146-38 220 12 156 44 276-24v133H0z" fill="#f8fafc" opacity=".08"/>
  <path d="M138 54h520" stroke="#f8fafc" stroke-width="2" opacity=".18"/>
  <path d="M138 354h520" stroke="#f8fafc" stroke-width="2" opacity=".14"/>
</g>
  <g filter="url(#shadow)"><g transform="translate(214 78)">
  <rect x="62" y="62" width="190" height="190" rx="42" fill="#14b8a6" opacity=".2" stroke="#f8fafc" stroke-width="22"/>
  <path d="M112 158h92M158 112v92M62 14v48M158 14v48M252 14v48M62 252v48M158 252v48M252 252v48M14 62h48M14 158h48M14 252h48M252 62h48M252 158h48M252 252h48" stroke="#f8fafc" stroke-width="16" stroke-linecap="round"/>
</g></g>
</svg>