<svg xmlns="http://www.w3.org/2000/svg" width="720" height="405" viewBox="0 0 720 405">
  <defs>
    <linearGradient id="bg" x1="0" x2="1" y1="0" y2="1">
      <stop offset="0" stop-color="#20111d"/>
      <stop offset="1" stop-color="#7c3aed"/>
    </linearGradient>
    <radialGradient id="glow" cx="50%" cy="50%" r="50%">
      <stop offset="0" stop-color="#fb7185" stop-opacity=".72"/>
      <stop offset="1" stop-color="#fb7185" stop-opacity="0"/>
    </radialGradient>
    <filter id="shadow" x="-20%" y="-20%" width="140%" height="140%">
      <feDropShadow dx="0" dy="18" stdDeviation="18" flood-color="#000000" flood-opacity=".24"/>
    </filter>
  </defs>
  <rect width="720" height="405" fill="url(#bg)"/>
  <circle cx="505" cy="81" r="190" fill="url(#glow)"/>
  <g opacity=".22">
  <circle cx="63" cy="310" r="80" fill="#fb7185"/>
  <path d="M0 318C88 268 142 338 224 284s146-38 220 12 156 44 276-24v133H0z" fill="#fff7ed" opacity=".08"/>
  <path d="M130 54h520" stroke="#fff7ed" stroke-width="2" opacity=".18"/>
  <path d="M130 354h520" stroke="#fff7ed" stroke-width="2" opacity=".14"/>
</g>
  <g filter="url(#shadow)"><g transform="translate(255 92)">
  <path d="M138 49c26 0 48 18 61 39-54 31-45 110 10 132-14 31-35 63-68 63-23 0-33-14-61-14s-40 14-62 14c-33 0-66-58-66-112 0-55 35-103 82-103 24 0 37 15 56 15 18 0 29-34 48-34z" fill="#fff7ed" opacity=".92"/>
  <path d="M137 10c6 38-24 70-58 72-2-34 26-68 58-72z" fill="#fb7185"/>
</g></g>
</svg>