<svg xmlns="http://www.w3.org/2000/svg" width="720" height="405" viewBox="0 0 720 405">
  <defs>
    <linearGradient id="bg" x1="0" x2="1" y1="0" y2="1">
      <stop offset="0" stop-color="#20111d"/>
      <stop offset="1" stop-color="#7c3aed"/>
    </linearGradient>
    <radialGradient id="glow" cx="50%" cy="50%" r="50%">
      <stop offset="0" stop-color="#fb7185" stop-opacity=".72"/>
      <stop offset="1" stop-color="#fb7185" stop-opacity="0"/>
    </radialGradient>
    <filter id="shadow" x="-20%" y="-20%" width="140%" height="140%">
      <feDropShadow dx="0" dy="18" stdDeviation="18" flood-color="#000000" flood-opacity=".24"/>
    </filter>
  </defs>
  <rect width="720" height="405" fill="url(#bg)"/>
  <circle cx="511" cy="85" r="190" fill="url(#glow)"/>
  <g opacity=".22">
  <circle cx="53" cy="310" r="80" fill="#fb7185"/>
  <path d="M0 318C88 268 142 338 224 284s146-38 220 12 156 44 276-24v133H0z" fill="#fff7ed" opacity=".08"/>
  <path d="M163 54h520" stroke="#fff7ed" stroke-width="2" opacity=".18"/>
  <path d="M163 354h520" stroke="#fff7ed" stroke-width="2" opacity=".14"/>
</g>
  <g filter="url(#shadow)"><g transform="translate(230 112)">
  <path d="M88 0c62 15 88 36 88 72 0 34-22 55-60 61V44c0-14-10-22-28-28z" fill="#fff7ed"/>
  <path d="M78 134c-44 12-76 28-76 48 0 28 68 32 146 8 44-14 82-34 82-55 0-19-26-27-62-25l-40 12c20-2 36 0 36 8 0 12-26 24-58 33-36 10-68 10-68 0 0-7 12-14 32-20z" fill="#fb7185"/>
</g></g>
</svg>